HIERARCHY
ROOT Hips
{
	OFFSET -3.958830 18.904000 13.208200
	CHANNELS 6 Xposition Yposition Zposition Zrotation Yrotation Xrotation 
	JOINT LHipJoint
	{
		OFFSET 0.000000 0.000000 0.000000
		CHANNELS 3 Zrotation Yrotation Xrotation
		JOINT LeftUpLeg
		{
			OFFSET 1.800000 -1.400000 0.085000
			CHANNELS 3 Zrotation Yrotation Xrotation
			JOINT LeftLeg
			{
				OFFSET 2.215000 -6.000000 0.000000
				CHANNELS 3 Zrotation Yrotation Xrotation
				JOINT LeftFoot
				{
					OFFSET 2.500000 -6.900000 0.000000
					CHANNELS 3 Zrotation Yrotation Xrotation
					JOINT LeftToeBase
					{
						OFFSET 0.200000 -0.500000 1.950000
						CHANNELS 3 Zrotation Yrotation Xrotation
						End Site
						{
							OFFSET 0.000000 0.000000 0.000000
						}
					}
				}
			}
		}
	}
	JOINT RHipJoint
	{
		OFFSET 0.000000 0.000000 0.000000
		CHANNELS 3 Zrotation Yrotation Xrotation
		JOINT RightUpLeg
		{
			OFFSET -1.800000 -1.400000 0.085000
			CHANNELS 3 Zrotation Yrotation Xrotation
			JOINT RightLeg
			{
				OFFSET -2.215000 -6.000000 0.000000
				CHANNELS 3 Zrotation Yrotation Xrotation
				JOINT RightFoot
				{
					OFFSET -2.500000 -6.900000 0.000000
					CHANNELS 3 Zrotation Yrotation Xrotation
					JOINT RightToeBase
					{
						OFFSET -0.200000 -0.500000 1.950000
						CHANNELS 3 Zrotation Yrotation Xrotation
						End Site
						{
							OFFSET 0.000000 0.000000 0.000000
						}
					}
				}
			}
		}
	}
	JOINT LowerBack
	{
		OFFSET 0.000000 0.000000 0.000000
		CHANNELS 3 Zrotation Yrotation Xrotation
		JOINT Spine
		{
			OFFSET -0.087000 1.940000 -0.288900
			CHANNELS 3 Zrotation Yrotation Xrotation
			JOINT Spine1
			{
				OFFSET 0.000000 1.950000 0.060000
				CHANNELS 3 Zrotation Yrotation Xrotation
				JOINT Neck
				{
					OFFSET 0.000000 0.000000 0.000000
					CHANNELS 3 Zrotation Yrotation Xrotation
					JOINT Neck1
					{
						OFFSET 0.000000 1.600000 0.340000
						CHANNELS 3 Zrotation Yrotation Xrotation
						JOINT Head
						{
							OFFSET 0.000000 1.667000 -0.240000
							CHANNELS 3 Zrotation Yrotation Xrotation
							End Site
							{
								OFFSET 0.000000 0.000000 0.000000
							}
						}
					}
				}
				JOINT LeftShoulder
				{
					OFFSET 0.000000 0.000000 0.000000
					CHANNELS 3 Zrotation Yrotation Xrotation
					JOINT LeftArm
					{
						OFFSET 2.700000 1.550000 -0.730000
						CHANNELS 3 Zrotation Yrotation Xrotation
						JOINT LeftForeArm
						{
							OFFSET 5.450000 0.000000 0.000000
							CHANNELS 3 Zrotation Yrotation Xrotation
							JOINT LeftHand
							{
								OFFSET 3.450000 0.000000 0.000000
								CHANNELS 3 Zrotation Yrotation Xrotation
								JOINT LeftHandIndex1
								{
									OFFSET 0.750000 0.000000 0.000000
									CHANNELS 3 Zrotation Yrotation Xrotation
									End Site
									{
										OFFSET 0.000000 0.000000 0.000000
									}
								}
							}
						}
					}
				}
				JOINT RightShoulder
				{
					OFFSET 0.000000 0.000000 0.000000
					CHANNELS 3 Zrotation Yrotation Xrotation
					JOINT RightArm
					{
						OFFSET -2.700000 1.550000 -0.730000
						CHANNELS 3 Zrotation Yrotation Xrotation
						JOINT RightForeArm
						{
							OFFSET -5.450000 0.000000 0.000000
							CHANNELS 3 Zrotation Yrotation Xrotation
							JOINT RightHand
							{
								OFFSET -3.450000 0.000000 0.000000
								CHANNELS 3 Zrotation Yrotation Xrotation
								JOINT RightHandIndex1
								{
									OFFSET -0.750000 0.000000 0.000000
									CHANNELS 3 Zrotation Yrotation Xrotation
									End Site
									{
										OFFSET 0.000000 0.000000 0.000000
									}
								}
							}
						}
					}
				}
			}
		}
	}
}
MOTION
Frames: 6
Frame Time: 0.016667
-1.572800 13.462920 -6.073570 -40.826537 2.598907 8.728654 -15.475425 11.921880 5.546879 -20.260884 -12.837170 -23.122895 -7.236231 10.447069 43.808031 1.008816 7.842814 2.146249 0.389550 0.294140 0.116840 18.211939 -10.485122 2.036480 1.122910 1.952368 -16.648944 -42.424088 9.789336 33.092629 -1.332452 -7.383912 2.059838 -0.063810 0.783160 0.315520 -3.124816 -1.649839 -8.311740 10.055661 -0.743405 52.430826 -3.916348 2.791573 32.527158 7.968965 -1.490271 -15.617449 -1.625995 5.932204 36.629665 11.622980 -1.176870 -6.196290 -8.484877 -31.515969 10.322837 1.147812 -14.405145 -1.583971 13.584867 -1.839716 -1.342479 -4.150116 3.009751 0.122190 0.255910 -0.066100 0.423810 -5.781920 36.677711 12.600978 -74.019075 41.021158 -40.572397 -75.236725 41.786828 -21.600837 2.501859 -0.850010 0.082650 0.432730 -0.043890 0.311060 
-1.573710 13.438550 -6.060540 -43.317805 -1.149713 8.883037 -15.345361 11.737228 5.381252 -19.249331 -12.017828 -24.592165 -5.374933 10.819715 47.233311 1.109553 8.318909 1.972334 0.499830 0.423720 0.206200 18.326922 -10.649764 2.241280 1.805020 3.457883 -16.118367 -41.834368 11.080494 36.236725 -1.475092 -7.746727 1.926670 0.011990 0.710390 0.329520 -3.415703 -0.801239 -8.298222 11.870847 0.093314 50.817196 -5.237735 3.999546 33.420481 8.288447 -1.358899 -15.552411 -1.054999 5.889451 37.652492 10.746320 -0.644820 -7.257940 -8.702013 -30.654101 9.825682 1.021366 -15.178962 -1.296509 13.033855 -1.247394 -1.245575 -4.118203 3.020140 0.118220 0.224890 -0.007540 0.453910 -6.214079 36.002815 13.073814 -72.027801 43.690602 -42.780723 -75.943438 43.682127 -24.059606 2.512923 -0.927619 0.124730 0.414320 -0.122980 0.306440 
-1.562710 13.444440 -6.049850 -45.698115 -5.095474 8.947873 -15.268831 11.738420 5.183728 -17.254870 -11.105237 -26.001375 -5.233418 11.761647 49.339258 1.144909 8.779523 1.777508 0.595400 0.535530 0.281480 18.378118 -10.758427 2.375865 2.324379 4.657507 -14.909697 -39.860570 11.755439 39.794865 -1.573911 -8.034131 1.812915 0.087290 0.637120 0.353810 -3.544260 -0.379687 -8.226600 12.210171 1.111407 50.020064 -5.986293 5.153450 34.134290 8.607174 -1.639119 -15.062849 -1.305927 5.974182 38.028142 9.002900 -0.091900 -9.161180 -9.792144 -29.007980 9.051406 1.093116 -15.352232 -1.271209 13.227112 -1.111245 -1.268977 -4.100971 3.046634 0.130500 0.206690 0.036440 0.453270 -5.867554 35.061436 12.907759 -72.837071 46.381878 -46.422977 -74.354872 46.137856 -25.229382 2.506059 -0.949628 0.155960 0.387420 -0.164940 0.285330 
-1.516420 13.480090 -6.072580 -46.506821 -6.122728 9.516825 -15.263302 11.738580 5.266347 -16.677530 -11.419916 -27.514950 -4.380672 11.807925 51.040946 1.153051 9.031238 1.678249 0.606820 0.530220 0.344280 18.367008 -10.858483 2.282097 1.548857 4.830925 -13.733032 -36.061283 11.198845 44.926741 -1.642557 -8.317365 1.706992 0.092140 0.569410 0.355370 -3.525474 -0.301657 -8.213855 12.124728 1.727791 49.960381 -5.953132 5.619289 33.329248 8.796215 -0.929272 -14.923441 0.147166 5.559069 39.688268 6.739010 0.714100 -9.799150 -10.455850 -29.958574 9.903734 0.607091 -14.276869 -1.780617 15.004239 -1.205359 -1.397853 -4.074043 3.051426 0.178410 0.181790 0.081810 0.431800 -5.800796 36.135508 11.452340 -67.828664 49.532794 -45.941669 -72.054210 49.150623 -26.730678 2.528297 -1.029033 0.142460 0.378680 -0.181040 0.239820 
-1.446020 13.550250 -6.112740 -46.212935 -7.102108 10.201795 -15.330345 11.783320 5.466753 -16.550936 -12.294199 -29.240754 -4.132205 11.785322 51.568521 1.067680 9.107635 1.624585 0.641920 0.519660 0.456020 18.292197 -10.898167 2.039885 -0.580225 4.875961 -12.203611 -31.144920 9.714717 51.579014 -1.710395 -8.735936 1.558947 0.120010 0.479100 0.331910 -3.322222 -0.571289 -8.194454 10.537939 2.996379 50.203431 -4.902108 6.282892 32.186608 8.992513 -0.749195 -14.215172 0.939668 5.447165 41.353315 3.822710 1.607310 -10.670460 -10.794805 -31.633054 11.492776 -0.121517 -12.767576 -2.301793 16.816346 -2.112899 -1.623018 -4.020283 3.048218 0.247740 0.150410 0.107210 0.388880 -6.112214 39.249289 8.027312 -57.989697 53.046038 -41.555075 -66.293082 53.011325 -26.748576 2.590677 -1.170418 0.098680 0.378090 -0.201690 0.153020 
-1.415180 13.599520 -6.154700 -45.752293 -7.515286 11.398349 -15.405429 11.688528 5.693941 -16.152285 -13.388596 -32.101388 -4.212887 12.573542 54.450198 1.155804 9.751216 1.414452 0.667720 0.523460 0.546220 18.239431 -10.836467 1.893632 -1.013348 4.585648 -10.745628 -27.335531 7.690661 54.423390 -1.706560 -8.754030 1.525957 0.143690 0.420920 0.332980 -3.151480 -0.720272 -8.263334 9.195792 4.392373 49.407652 -3.827952 7.372038 29.916066 9.204139 -0.132873 -12.944433 2.728158 4.973613 43.593487 0.721780 2.513580 -10.839180 -11.767439 -33.660685 13.299116 -0.521935 -12.011011 -2.381519 17.125049 -1.936927 -1.619196 -3.986594 3.025282 0.279680 0.141670 0.142270 0.368650 -5.831730 42.880905 2.786201 -40.243158 56.500246 -30.934544 -58.646704 57.107916 -26.003347 2.744188 -1.334487 0.077620 0.380580 -0.226700 0.103490 
